<?xml version="1.0" standalone="no"?><!DOCTYPE svg PUBLIC "-//W3C//DTD SVG 1.1//EN" "http://www.w3.org/Graphics/SVG/1.1/DTD/svg11.dtd"><svg t="1620809977090" class="icon" viewBox="0 0 1218 1024" version="1.1" xmlns="http://www.w3.org/2000/svg" p-id="2960" xmlns:xlink="http://www.w3.org/1999/xlink" width="237.890625" height="200"><defs><style type="text/css"></style></defs><path d="M284.720991 115.11232c0 6.782744-3.391372 11.869802-6.782744 16.95686-127.176448 125.480762-127.176448 327.267392 1.695686 452.748154 6.782744 10.174116 5.087058 22.043918-3.391372 30.522347s-20.348232 8.47843-32.218033 0c-69.523125-67.827439-108.523902-161.090167-108.523902-259.439953 0-96.6541 39.000777-189.916829 108.523902-259.439953 10.174116-8.47843 23.739604-8.47843 33.913719 0 5.087058 6.782744 6.782744 11.869802 6.782744 18.652545z m-25.43529-3.391372v3.391372-3.391372c-1.695686 1.695686 0 0 0 0z m605.359892-106.828216C1063.040851 199.896619 1063.040851 513.598523 866.341279 706.906724c-8.47843 10.174116-23.739604 11.869802-33.91372 3.391372-3.391372-3.391372-6.782744-6.782744-6.782744-11.869802-1.695686-8.47843 1.695686-16.95686 6.782744-22.043918C1010.474586 498.337349 1010.474586 215.157793 832.427559 38.806452c-8.47843-8.47843-8.47843-23.739604 1.695686-32.218034 6.782744-8.47843 22.043918-8.47843 30.522348-1.695686z" fill="#B4C0D8" p-id="2961"></path><path d="M769.687178 98.155461c144.133307 142.437621 144.133307 373.050913 0 515.488534-8.47843 10.174116-23.739604 11.869802-33.913719 3.391372-3.391372-3.391372-6.782744-6.782744-6.782744-11.869801-1.695686-8.47843 1.695686-16.95686 6.782744-22.043918 125.480762-123.785076 125.480762-325.571706 0-449.356782-8.47843-8.47843-8.47843-23.739604 1.695686-32.218033 8.47843-11.869802 22.043918-13.565488 32.218033-3.391372l-10.174116 10.174115 10.174116-10.174115zM25.281038 355.899728h13.565487-13.565487z m13.565487 0h13.565488c0 118.698018 47.479207 232.308978 133.959192 317.093276 8.47843 8.47843 6.782744 23.739604-1.695686 32.218034s-22.043918 8.47843-32.218034 0a489.3241 489.3241 0 0 1 0-700.318306c8.47843-6.782744 22.043918-6.782744 32.218034 1.695686 8.47843 8.47843 10.174116 22.043918 0 32.218034-84.784298 83.088613-133.959192 198.395258-132.263506 317.093276H38.846525z" fill="#B4C0D8" p-id="2962"></path><path d="M369.505289 193.113875c8.47843 8.47843 8.47843 23.739604 0 32.218033-69.523125 72.914497-69.523125 191.612515 0 266.222698 6.782744 8.47843 6.782744 22.043918-1.695685 30.522347s-22.043918 10.174116-32.218034 0C249.111586 432.205597 249.111586 282.985231 335.59157 193.113875c8.47843-10.174116 23.739604-10.174116 33.913719 0-1.695686-1.695686 0-1.695686 0 0l-10.174115 8.47843 10.174115-8.47843zM622.162499 193.113875c8.47843-8.47843 23.739604-10.174116 32.218033 0 88.17567 91.567042 88.17567 239.091722 0 328.963078-5.087058 6.782744-15.261174 10.174116-23.739603 8.47843-8.47843-1.695686-15.261174-8.47843-16.95686-16.95686-1.695686-8.47843 1.695686-16.95686 6.782744-22.043917C689.989938 418.640109 689.989938 299.942091 620.466813 227.027594c-6.782744-10.174116-6.782744-25.43529 1.695686-33.913719l10.174116 8.47843L622.162499 193.113875z" fill="#B4C0D8" p-id="2963"></path><path d="M520.421341 822.21337v-42.39215s42.392149-25.43529 42.392149-74.610182V513.598523l-174.655655-22.043917-67.827439 55.957637c-15.261174 13.565488-23.739604 33.913719-23.739603 54.261951V820.517684l223.830548 1.695686z" fill="#FFDDC6" p-id="2964"></path><path d="M532.291143 834.083171H286.416677V603.46988c0-23.739604 10.174116-47.479207 27.130975-62.740381l72.914497-59.349009 188.221143 23.739603v201.786631c0 44.087835-30.522347 71.218811-42.392149 79.69724v47.479207z m-223.830548-22.043917h201.78663v-39.000777l5.087058-3.391372c1.695686-1.695686 37.305091-23.739604 37.305091-64.436067V523.772639l-161.090167-18.652546-64.436067 52.566265c-13.565488 11.869802-20.348232 28.826661-20.348231 47.479208l1.695686 206.873688z" fill="#2A5082" p-id="2965"></path><path d="M276.242561 822.21337h256.048582v74.610182H276.242561v-74.610182z" fill="#F69C63" p-id="2966"></path><path d="M542.465258 896.823552H520.421341v-64.436067H286.416677v64.436067H266.068445v-84.784298h276.396813v84.784298z" fill="#2A5082" p-id="2967"></path><path d="M308.460595 854.431403h32.218033v22.043918h-32.218033V854.431403z" fill="#2A5082" p-id="2968"></path><path d="M637.423673 301.637777H415.288811c-11.869802 0-22.043918 10.174116-22.043918 22.043918v318.788962l32.218033 32.218033h211.960747c11.869802 0 22.043918-10.174116 22.043917-22.043917V323.681695c0-11.869802-10.174116-22.043918-22.043917-22.043918z" fill="#FFD673" p-id="2969"></path><path d="M637.423673 684.862806H425.462926v-22.043918h211.960747c6.782744 0 10.174116-5.087058 10.174115-10.174115V323.681695c0-6.782744-5.087058-10.174116-10.174115-10.174116H415.288811c-6.782744 0-10.174116 5.087058-10.174116 10.174116v318.788962h-22.043918V323.681695c0-18.652546 13.565488-32.218033 32.218034-32.218034H639.119359c18.652546 0 32.218033 13.565488 32.218033 32.218034v328.963078c-1.695686 18.652546-15.261174 32.218033-33.913719 32.218033z" fill="#2A5082" p-id="2970"></path><path d="M542.465258 301.637777h64.436067v373.050913h-64.436067v-373.050913z" fill="#FFFFFF" p-id="2971"></path><path d="M617.075441 684.862806h-84.784298V291.463661h84.784298V684.862806z m-64.436067-22.043918h42.392149V311.811893h-42.392149v351.006995zM489.898993 333.85581h22.043918v42.39215h-22.043918V333.85581z m0 62.740381h22.043918v42.39215h-22.043918V396.596191z" fill="#2A5082" p-id="2972"></path><path d="M471.246448 516.989895c-23.739604 23.739604-122.08939 118.698018-122.08939 118.698018l84.784298 110.219588s35.609405-44.087835 11.869802-96.6541c0 0 42.392149-47.479207 52.566265-62.740381 25.43529-33.913719-3.391372-93.262728-27.130975-69.523125z" fill="#FFDDC6" p-id="2973"></path><path d="M444.115472 754.385931l-15.261174-13.565488c1.695686-1.695686 30.522347-39.000777 10.174116-86.479984l-3.391372-6.782744 5.087058-5.087058s42.392149-47.479207 52.566265-61.044695c13.565488-18.652546 5.087058-49.174893-5.087058-57.653323-3.391372-1.695686-5.087058-3.391372-8.478429 1.695686-23.739604 25.43529-120.393704 118.698018-122.08939 120.393704l-15.261174-15.261174c1.695686-1.695686 96.6541-94.958414 122.08939-118.698018 10.174116-10.174116 25.43529-11.869802 37.305091-1.695686 18.652546 15.261174 27.130976 59.349009 8.47843 86.479985-8.47843 13.565488-39.000777 45.783521-49.174893 59.349009 18.652546 52.566265-16.95686 94.958414-16.95686 98.349786z" fill="#2A5082" p-id="2974"></path></svg>